<?xml version="1.0" standalone="no"?>
<!DOCTYPE svg PUBLIC "-//W3C//DTD SVG 20010904//EN"
 "http://www.w3.org/TR/2001/REC-SVG-20010904/DTD/svg10.dtd">
<svg version="1.0" xmlns="http://www.w3.org/2000/svg"
 width="700.000000pt" height="700.000000pt" viewBox="0 0 700.000000 700.000000"
 preserveAspectRatio="xMidYMid meet">
<metadata>
Created by potrace 1.11, written by Peter Selinger 2001-2013
</metadata>
<g transform="translate(0.000000,700.000000) scale(0.100000,-0.100000)"
fill="#000000" stroke="none">
<path d="M3282 6140 c-802 -47 -1401 -369 -1809 -975 -115 -171 -189 -321
-224 -453 -30 -110 -37 -306 -15 -392 36 -143 121 -274 241 -373 69 -57 1734
-1192 1739 -1186 25 28 509 728 510 738 1 7 -309 221 -689 475 -729 487 -738
494 -751 578 -5 27 -1 48 16 80 60 116 228 303 352 391 335 239 850 293 1294
136 504 -178 901 -635 1019 -1174 36 -163 46 -270 46 -459 -1 -540 -177 -972
-543 -1333 -230 -227 -438 -354 -702 -428 -221 -62 -560 -60 -830 4 -323 78
-689 272 -982 523 -51 43 -94 78 -97 78 -3 0 -126 -154 -273 -342 l-267 -342
95 -91 c506 -482 1213 -735 2052 -735 379 0 665 54 971 183 494 209 962 634
1228 1115 230 415 337 860 337 1397 0 644 -154 1147 -488 1599 -102 137 -357
390 -507 502 -487 363 -1055 523 -1723 484z"/>
</g>
</svg>
